<?xml version="1.0" standalone="no"?>
<!DOCTYPE svg PUBLIC "-//W3C//DTD SVG 20010904//EN">
<svg xmlns="http://www.w3.org/2000/svg"
 width="700.000000pt" height="700.000000pt" viewBox="0 0 700.000000 700.000000"
 preserveAspectRatio="xMidYMid meet">
<g transform="translate(0.000000,700.000000) scale(0.100000,-0.100000)"
fill="#000000" stroke="none">
<path d="M3491 6863 c-157 -817 -355 -1446 -576 -1833 -21 -36 -46 -81 -57
-100 -69 -119 -209 -298 -328 -419 -86 -87 -334 -291 -354 -291 -3 0 -36 -20
-74 -44 -212 -137 -552 -281 -924 -390 -204 -60 -292 -82 -588 -151 -8 -2 -73
-15 -145 -30 -72 -14 -139 -28 -150 -31 -60 -12 -73 -14 -109 -20 -21 -3 -48
-8 -60 -10 -11 -3 -40 -8 -64 -13 -47 -9 -67 -21 -36 -21 15 0 340 -62 394
-75 8 -2 78 -18 155 -35 77 -17 154 -35 170 -40 17 -5 93 -25 170 -45 166 -43
363 -102 387 -115 10 -6 22 -10 28 -10 11 0 266 -94 320 -118 729 -323 1114
-717 1408 -1437 132 -323 274 -844 376 -1380 2 -11 11 -60 20 -110 29 -160 27
-162 71 75 32 174 122 567 156 684 12 38 22 76 24 85 16 82 138 449 203 611
81 201 230 483 310 585 4 6 18 26 32 45 38 57 157 196 219 258 225 225 481
392 826 540 141 60 380 146 510 183 39 11 77 22 85 25 209 62 994 235 1078
237 25 1 11 15 -20 20 -150 27 -200 37 -220 43 -10 3 -29 7 -43 10 -14 2 -36
6 -50 9 -14 3 -37 7 -52 10 -16 3 -36 8 -45 11 -10 3 -30 7 -45 10 -16 3 -102
23 -193 45 -91 22 -172 42 -181 44 -47 10 -378 109 -466 140 -157 54 -319 118
-418 166 -49 24 -92 43 -95 44 -3 0 -21 10 -41 23 -20 12 -39 22 -42 22 -7 0
-210 121 -217 130 -3 3 -36 28 -74 55 -318 224 -575 552 -766 975 -138 305
-281 773 -375 1225 -33 159 -96 484 -97 502 -4 47 -14 20 -37 -94z"/>
</g>
</svg>
