<svg xmlns="http://www.w3.org/2000/svg" width="18" height="18" viewBox="0 0 18 18">
    <g transform="translate(2.829 2.956)">
        <circle cx="9" cy="9" r="9" transform="translate(-2.829 -2.956)" fill="#76d10b"/>
        <g transform="translate(0.896 0.557)">
            <path d="M25.9,12.143a.445.445,0,0,0-.481.406l-.046.537a5.4,5.4,0,0,0-7.023-1.337,5.451,5.451,0,0,0-1.9,7.443,5.377,5.377,0,0,0,3.312,2.494,5.436,5.436,0,0,0,4.1-.59.449.449,0,0,0,.157-.612.442.442,0,0,0-.609-.155,4.511,4.511,0,0,1-6.194-1.592A4.558,4.558,0,0,1,18.8,12.516a4.511,4.511,0,0,1,6.01,1.315l-.825-.073a.446.446,0,0,0-.077.889s1.785.157,1.8.157a.434.434,0,0,0,.285-.1.445.445,0,0,0,.157-.3l.154-1.767a.445.445,0,0,0-.4-.486Z"
                  transform="translate(-15.701 -10.99)" fill="#fff"/>
            <path d="M131.658,176.264a4.914,4.914,0,0,0,.524-.532,2.106,2.106,0,0,0,.32-.535,1.467,1.467,0,0,0,.1-.537,1.09,1.09,0,0,0-.353-.827,1.351,1.351,0,0,0-.97-.333,1.513,1.513,0,0,0-.94.287,1.3,1.3,0,0,0-.447.948l.8.08a.767.767,0,0,1,.171-.5.612.612,0,0,1,.8-.008.556.556,0,0,1,.143.411.879.879,0,0,1-.165.491,5.85,5.85,0,0,1-.664.684,5.38,5.38,0,0,0-.9,1,1.932,1.932,0,0,0-.273.8h2.8v-.741h-1.587a1.367,1.367,0,0,1,.163-.221Q131.281,176.612,131.658,176.264Z"
                  transform="translate(-127.642 -170.33)" fill="#fff"/>
            <path d="M248.58,177.689v-.841h.518v-.7h-.518V173.5h-.672l-1.808,2.649v.7h1.706v.841Zm-1.734-1.541.959-1.425v1.425Z"
                  transform="translate(-241.238 -170.33)" fill="#fff"/>
        </g>
    </g>
</svg>
