<svg xmlns="http://www.w3.org/2000/svg" viewBox="0 0 142.101 139.397">
    <path d="M137.673,115.174l-9.195-16.511a64.685,64.685,0,1,0-11.749,16.7C126.694,115.365,137.673,115.174,137.673,115.174Z"
          transform="translate(-0.761 -0.748)" fill="#fff"/>
    <path d="M69.7,5.195a64.529,64.529,0,0,1,58.01,92.72l9.195,16.511s-10.979.19-20.944.19A64.495,64.495,0,1,1,69.7,5.195M69.7,0a69.7,69.7,0,1,0,48.425,119.8c9.273,0,18.771-.182,18.875-.19a5.195,5.195,0,0,0,4.45-7.714l-7.914-14.2a68.919,68.919,0,0,0,5.862-28A69.776,69.776,0,0,0,69.7,0Z"
          fill="#a93b12"/>
    <path d="M34.947,60.535a6.277,6.277,0,0,1-3.186,1.212,6.866,6.866,0,0,1-6.121-2.952,6.243,6.243,0,0,1-1.03-3.255,7.463,7.463,0,0,1,.771-3.559,7.368,7.368,0,0,1,1.836-2.442,6.061,6.061,0,0,1,2.485-1.3l.745,2.468a4.1,4.1,0,0,0-2.736,2.234,4.217,4.217,0,0,0-.45,2.13A3.688,3.688,0,0,0,27.934,57a4.216,4.216,0,0,0,1.671,1.42,4.329,4.329,0,0,0,2.13.45,3.688,3.688,0,0,0,1.931-.675,4.173,4.173,0,0,0,1.385-1.68,4.009,4.009,0,0,0,0-3.541l2.4-.944a5.844,5.844,0,0,1,.545,2.771,7.61,7.61,0,0,1-.779,2.961,7.282,7.282,0,0,1-2.268,2.771Z"
          transform="translate(-3.302 -6.473)" fill="#dd0b0b"/>
    <path d="M41.158,42.456l-1.411,1.463,3.68,3.576-2.035,2.1L32.24,40.724l2.035-2.1,3.706,3.584,1.463-1.489-1.351-6,2.173-2.234,1.515,7.282,7.723,1.5-2.329,2.407Z"
          transform="translate(-4.326 -4.36)" fill="#dd0b0b"/>
    <path d="M46.94,27.8l2.6-1.316,3.723,7.429,1.732-10.147,2.476-1.247,5.714,11.394-2.6,1.307-3.706-7.4-1.732,10.13L52.654,39.2Z"
          transform="translate(-6.299 -3.022)" fill="#dd0b0b"/>
    <path d="M81.274,28.871l.528,5.013-2.693.286-.277-2.6-8.97.918.277,2.6-2.719.338L66.91,30.4l.511-.052c.753-.1,1.229-.719,1.429-1.836a20.1,20.1,0,0,0,.087-4.719l-.268-3.957,9.74-1.03L79.5,29.087Zm-9.7-1.238a5.1,5.1,0,0,1-.649,2.346l5.671-.615-.866-7.9-4.329.459.139,1.853a27.092,27.092,0,0,1,.035,3.853Z"
          transform="translate(-8.978 -2.524)" fill="#dd0b0b"/>
    <path d="M91.586,27.943,89.6,27.467l-1.195,5-2.849-.684,2.978-12.4,2.857.684-1.221,5.048,2.052.485,4.45-4.234,3.03.727-5.481,5.022,2.649,7.4-3.255-.771Z"
          transform="translate(-11.481 -2.6)" fill="#dd0b0b"/>
    <path d="M108.616,38.611l-5-3.178L101.2,37.165,98.65,35.537l11.637-7.7,2.459,1.558-2.035,13.853-2.6-1.662Zm.416-2.39.918-5.195-4.329,3.03Z"
          transform="translate(-13.237 -3.736)" fill="#dd0b0b"/>
    <path d="M51.58,121.136l-5.307,6.156-1.429-1.229,2.165-2.52-2.8-2.407-2.182,2.528-1.42-1.229,5.307-6.165,1.42,1.229-2.061,2.424,2.8,2.416,2.1-2.433Z"
          transform="translate(-5.449 -15.601)" fill="#dd0b0b"/>
    <path d="M55.99,131.413l-3.325-1.784L51.2,130.815l-1.732-.909,7.048-5.446,1.636.866-.649,8.883-1.732-.935Zm.156-1.533.338-3.359-2.6,2.13Z"
          transform="translate(-6.638 -16.7)" fill="#dd0b0b"/>
    <path d="M73.241,134.845a1.879,1.879,0,0,1,.139,1.281,1.948,1.948,0,0,1-1.152,1.524,3.87,3.87,0,0,1-2.416.113L65.89,136.9l1.68-7.957,3.706.779a3.844,3.844,0,0,1,2.043,1,1.732,1.732,0,0,1,.459,1.68,1.913,1.913,0,0,1-.519.978,2.044,2.044,0,0,1-.978.537,2.2,2.2,0,0,1,.961.926Zm-1.732.745c.139-.658-.225-1.082-1.091-1.264L68.4,133.9l-.39,2.017,2.017.433c.866.173,1.368-.078,1.515-.762Zm-2.84-2.97,1.732.355a1.446,1.446,0,0,0,.961-.052,1.018,1.018,0,0,0,.3-1.437,1.524,1.524,0,0,0-.866-.442l-1.732-.364Z"
          transform="translate(-8.841 -17.301)" fill="#dd0b0b"/>
    <path d="M78.723,138.456a4.122,4.122,0,0,1-1.567-1.515,4.4,4.4,0,0,1,.052-4.329,4.1,4.1,0,0,1,1.593-1.481,5.082,5.082,0,0,1,4.173-.121,3.775,3.775,0,0,1,1.429,1.082L83.182,133.2a2.6,2.6,0,0,0-2.035-.978,2.684,2.684,0,0,0-1.351.312,2.329,2.329,0,0,0-.935.918,2.649,2.649,0,0,0-.346,1.342,2.684,2.684,0,0,0,.312,1.351,2.329,2.329,0,0,0,.918.935,2.736,2.736,0,0,0,1.342.346,2.6,2.6,0,0,0,2.052-.944l1.2,1.134a3.87,3.87,0,0,1-1.455,1.065,4.779,4.779,0,0,1-1.922.346A4.7,4.7,0,0,1,78.723,138.456Z"
          transform="translate(-10.28 -17.527)" fill="#dd0b0b"/>
    <path d="M94.138,135.834l.268,1.481-6.2,1.117-1.437-8,6.061-1.091.26,1.489-4.208.753.312,1.732,3.723-.667.26,1.437-3.723.667.338,1.853Z"
          transform="translate(-11.643 -17.355)" fill="#dd0b0b"/>
    <path d="M105.495,124l-.338,7.3a3.913,3.913,0,0,1-.476,1.792,2.727,2.727,0,0,1-1.169,1.091,3.68,3.68,0,0,1-1.316.32l-.208-1.489a2.6,2.6,0,0,0,.8-.216,1.16,1.16,0,0,0,.494-.416,1.853,1.853,0,0,0,.234-.7v-.113l-5.472-4,1.81-.866,3.836,3,.121-4.909Z"
          transform="translate(-13.155 -16.639)" fill="#dd0b0b"/>
    <path d="M113.469,128.112a4.087,4.087,0,0,1-2.165-.251,4.39,4.39,0,0,1-2.6-3.463,4.1,4.1,0,0,1,.372-2.147,5.013,5.013,0,0,1,3.247-2.6,3.8,3.8,0,0,1,1.792,0l-.3,1.619a2.6,2.6,0,0,0-2.216.45,2.822,2.822,0,0,0-.866,1.074,2.355,2.355,0,0,0-.182,1.29,2.909,2.909,0,0,0,1.6,2.165,2.39,2.39,0,0,0,1.3.19,2.814,2.814,0,0,0,1.281-.537,2.6,2.6,0,0,0,1.056-2l1.636.173a3.758,3.758,0,0,1-.511,1.732,4.805,4.805,0,0,1-1.316,1.446,4.545,4.545,0,0,1-2.13.857Z"
          transform="translate(-14.584 -16.041)" fill="#dd0b0b"/>
    <path d="M119.753,111.39l6.061,5.394-1.212,1.394-4.935-4.381-1.853,2.087,1.229,1.169a16.6,16.6,0,0,1,1.913,2.069,3.394,3.394,0,0,1,.745,1.645,1.818,1.818,0,0,1-.528,1.463,3.775,3.775,0,0,1-.71.615l-1.117-1.143a.866.866,0,0,0,.26-.225.961.961,0,0,0,0-1.229,9.524,9.524,0,0,0-1.636-1.9l-2.39-2.277Z"
          transform="translate(-15.509 -14.947)" fill="#dd0b0b"/>
    <path d="M125.1,102.38l3.862,6.208a3.862,3.862,0,0,1,.623,1.732,2.6,2.6,0,0,1-.346,1.567,3.394,3.394,0,0,1-.866,1.013l-1.013-1.108a2.935,2.935,0,0,0,.537-.632,1.16,1.16,0,0,0,.164-.623,1.6,1.6,0,0,0-.208-.71l-.043-.1-6.779-.19,1-1.732,4.866.294-2.684-4.1Z"
          transform="translate(-16.24 -13.738)" fill="#dd0b0b"/>
    <path d="M129.359,95.7l-1.307,3.654,6.225,2.208-.632,1.732L126,100.573l1.931-5.4Z"
          transform="translate(-16.907 -12.77)" fill="#dd0b0b"/>
    <path d="M128.52,93.04l.286-1.853,5.238.814L129.4,87.352l.268-1.732,8.035,1.247-.286,1.836-5.195-.814,4.632,4.649-.277,1.732Z"
          transform="translate(-17.245 -11.489)" fill="#dd0b0b"/>
    <path d="M74.605,88.516l2.069,6.061-24.243,8.269-1.645-4.814L59.194,82.1a14.121,14.121,0,0,0,1.558-4.139,6.251,6.251,0,0,0-.225-2.918,3.775,3.775,0,0,0-2.32-2.52,6.45,6.45,0,0,0-4.182.277,9.2,9.2,0,0,0-3.533,2.1,7.706,7.706,0,0,0-2.026,3.385L41.86,76.637a13.412,13.412,0,0,1,3.688-6.147,18.269,18.269,0,0,1,7.039-4.165,16.537,16.537,0,0,1,6.658-.97,10.251,10.251,0,0,1,5.247,1.887,9.013,9.013,0,0,1,3.2,4.52,11.974,11.974,0,0,1,.571,5.281,19.914,19.914,0,0,1-2.485,6.684l-5.013,9.524Z"
          transform="translate(-5.617 -8.765)" fill="#dd0b0b"/>
    <path d="M92.316,87.761a13.957,13.957,0,0,1-6.831-4.052,21.948,21.948,0,0,1-4.805-8.321,21.94,21.94,0,0,1-1.273-9.524,14.035,14.035,0,0,1,2.935-7.377,14.589,14.589,0,0,1,14.234-4.849,13.957,13.957,0,0,1,6.831,4.052,21.879,21.879,0,0,1,4.805,8.338,21.922,21.922,0,0,1,1.273,9.524,13.966,13.966,0,0,1-2.935,7.377,14.589,14.589,0,0,1-14.234,4.849Zm9.4-10.831q.814-3.108-.987-8.381T96.4,61.319a5.74,5.74,0,0,0-9.178,3.126q-.823,3.1.978,8.372c1.2,3.524,2.6,5.931,4.329,7.238a5.74,5.74,0,0,0,9.178-3.126Z"
          transform="translate(-10.644 -7.153)" fill="#dd0b0b"/>
    <path d="M121.359,62.693a3.714,3.714,0,0,1-1.81-2.26,4.165,4.165,0,0,1-.216-2.043,3.143,3.143,0,0,1,.788-1.61,4,4,0,0,1,3.463-1.178,3.152,3.152,0,0,1,1.61.8,4.061,4.061,0,0,1,1.074,1.732,3.714,3.714,0,0,1-.052,2.9,3.921,3.921,0,0,1-4.857,1.662Zm2.52-2.4a2.675,2.675,0,0,0-.182-1.273,2.6,2.6,0,0,0-.641-1.126.658.658,0,0,0-1.134.39,2.676,2.676,0,0,0,.182,1.273,2.6,2.6,0,0,0,.641,1.126.658.658,0,0,0,1.134-.39Zm5.3-6.866,3.048-1.039L127.9,67.975l-3.048,1.039Zm3.463,12.061a3.645,3.645,0,0,1-1.818-2.26,4.026,4.026,0,0,1-.208-2.035,3,3,0,0,1,.788-1.619,3.766,3.766,0,0,1,1.576-1,3.844,3.844,0,0,1,1.862-.173,3.1,3.1,0,0,1,1.61.805,4.122,4.122,0,0,1,1.082,1.732,3.671,3.671,0,0,1-.061,2.9,3.792,3.792,0,0,1-4.831,1.645Zm2.511-2.4a2.468,2.468,0,0,0-.182-1.273,2.6,2.6,0,0,0-.632-1.126.7.7,0,0,0-.693-.173.684.684,0,0,0-.442.563,2.459,2.459,0,0,0,.182,1.273,2.537,2.537,0,0,0,.632,1.126.684.684,0,0,0,.693.173.658.658,0,0,0,.442-.563Z"
          transform="translate(-16.007 -7.03)" fill="#dd0b0b"/>
    <rect width="13.853" height="6.061" transform="translate(22.29 83.646) rotate(-18.81)" fill="#dd0b0b"/>
</svg>
