<svg xmlns="http://www.w3.org/2000/svg" width="21.72" height="24.304" viewBox="0 0 21.72 24.304">
    <path class="icon-fill" d="M20.159,16.22c-1.408-1.2-2.837-1.933-4.227-.731l-.83.727c-.608.527-1.737,2.992-6.1-2.032s-1.768-5.8-1.16-6.322l.835-.728c1.383-1.205.861-2.722-.136-4.284l-.6-.946C6.932.347,5.84-.676,4.453.527L3.7,1.182A7.035,7.035,0,0,0,.962,5.838c-.5,3.309,1.078,7.1,4.693,11.254S12.8,23.34,16.149,23.3a7.053,7.053,0,0,0,4.989-2.066l.752-.656c1.383-1.2.524-2.426-.885-3.633Z"
          transform="translate(-0.872 1)" fill="#96f263"/>
    <path class="icon-fill" d="M20.159,16.22c-1.408-1.2-2.837-1.933-4.227-.731l-.83.727c-.608.527-1.737,2.992-6.1-2.032s-1.768-5.8-1.16-6.322l.835-.728c1.383-1.205.861-2.722-.136-4.284l-.6-.946C6.932.347,5.84-.676,4.453.527L3.7,1.182A7.035,7.035,0,0,0,.962,5.838c-.5,3.309,1.078,7.1,4.693,11.254S12.8,23.34,16.149,23.3a7.053,7.053,0,0,0,4.989-2.066l.752-.656c1.383-1.2.524-2.426-.885-3.633Z"
          transform="translate(-0.872 0)" fill="#379b00"/>
</svg>
