<svg xmlns="http://www.w3.org/2000/svg" width="764.363" height="127.53" viewBox="0 0 764.363 127.53"><g transform="translate(0 15.422)"><path d="M3349.9,1029.41c-19.957-2.445-74.047-49.145-95.414-14.41-8.046-18.1-43.026-8.845-44.518-4.971-19.3-7.7-18.383,2.536-30.673,4.971-11.739-10.786-20.657-9.393-24.02-10.02-2.308-5.859-19.124-16.758-41.189,0-17.79-13.891-32.8-19.523-58.757-16.793-13.772,1.448-28.007,6.273-29.82,12.724-13.01-10.715-29.295-.142-30.8,6.986-8.01-5.893-29.155-5.945-28.7-2.917-45.785-54.07-116.909-17.246-112.246-7.047-17.75-10.607-52.584,11.44-28.173,31.477-5.246-2.6-12.72,3.408-4.837,7.715-38.029-16.368-71.428-35.352-83.631-22.125-7.122,8.149,1.4,23.441-35.2,39.117-17.429,7.359-42.051-12.43-57.785,9.039-5.723,15.68-24.214,17.344-31.57,17.353-39.456.047,658.234,0,658.234,0S3335.6,1068.113,3349.9,1029.41Z" transform="translate(-2610.96 -968.422)" fill="#b4d7ff"/><path d="M-1528.846-840.914h-.2l-1.6,0Zm33.463-41.02c4.409-5.044,24.212-18.732,62.241-2.363-7.884-4.307-.409-10.311,4.837-7.715-24.411-20.036,10.423-42.083,28.173-31.477-4.663-10.2,54.086-67.554,125.37,12.1-.456-3.029,7.565-8.024,15.575-2.131,1.5-7.128,17.788-17.7,30.8-6.986,1.813-6.45,14.989-17.635,28.76-19.084,25.956-2.729,42.026,9.262,59.816,23.152,22.064-16.758,38.881-5.859,41.188,0,3.363.627,12.281-.767,24.02,10.02,12.289-2.435,11.378-12.672,30.673-4.972,1.492-3.874,24.634-13.13,32.68,4.972,21.368-34.735,51.522-10.413,56.3-10.02,6.757-10.363,29.856-.09,61.152,10.184,24.417,8.015,53.825,16.032,84.357,14.246,9.273,15.7-58.843,50.251-58.843,50.251s-622.656.8-660.562.848C-1507.641-841.059-1514.276-860.317-1495.383-881.934Zm33.124-17.488a4,4,0,0,1,4-4,4,4,0,0,1,4,4,4,4,0,0,1-4,4A4,4,0,0,1-1462.26-899.422Zm612.536-7.523a4,4,0,0,1,1.842-5.349,4,4,0,0,1,5.349,1.841,4,4,0,0,1-1.842,5.349,3.984,3.984,0,0,1-1.751.406A4,4,0,0,1-849.724-906.945Zm-10.911-6.942a2,2,0,0,1,.921-2.674,2,2,0,0,1,2.674.921,2,2,0,0,1-.921,2.674,1.993,1.993,0,0,1-.875.2A2,2,0,0,1-860.635-913.887Zm20-2a2,2,0,0,1,.921-2.675,2,2,0,0,1,2.675.922,2,2,0,0,1-.922,2.674,1.992,1.992,0,0,1-.875.2A2,2,0,0,1-840.635-915.887Zm-615.625-12.036a10.5,10.5,0,0,1,10.5-10.5,10.5,10.5,0,0,1,10.5,10.5,10.5,10.5,0,0,1-10.5,10.5A10.5,10.5,0,0,1-1456.26-927.923Zm430.906,3.587a4,4,0,0,1,1.842-5.349,4,4,0,0,1,5.349,1.841,4,4,0,0,1-1.842,5.349,3.984,3.984,0,0,1-1.751.406A4,4,0,0,1-1025.354-924.336Zm-209.906-14.586a5.5,5.5,0,0,1,5.5-5.5,5.5,5.5,0,0,1,5.5,5.5,5.5,5.5,0,0,1-5.5,5.5A5.5,5.5,0,0,1-1235.26-938.922Zm-168-6.5a4,4,0,0,1,4-4,4,4,0,0,1,4,4,4,4,0,0,1-4,4A4,4,0,0,1-1403.26-945.422Zm161-.5a2.5,2.5,0,0,1,2.5-2.5,2.5,2.5,0,0,1,2.5,2.5,2.5,2.5,0,0,1-2.5,2.5A2.5,2.5,0,0,1-1242.26-945.923Zm-64-14.5a8,8,0,0,1,8-8,8,8,0,0,1,8,8,8,8,0,0,1-8,8A8,8,0,0,1-1306.26-960.422Z" transform="translate(1572.936 953)" fill="#fff"/></g></svg>