<svg xmlns="http://www.w3.org/2000/svg" viewBox="0 0 188.96 32.309">
    <defs>
        <clipPath id="a">
            <rect width="188.96" height="32.309" fill="#fff"/>
        </clipPath>
    </defs>
    <g clip-path="url(#a)">
        <path d="M181.134,36.912A13.132,13.132,0,0,1,176,31.99a13.649,13.649,0,0,1-1.858-7.086,13.546,13.546,0,0,1,1.877-7.086,13.267,13.267,0,0,1,5.152-4.922,15.1,15.1,0,0,1,7.335-1.781,15.31,15.31,0,0,1,6.014,1.149,12.275,12.275,0,0,1,4.6,3.333L195.9,18.622a9.383,9.383,0,0,0-7.163-3.141,10.047,10.047,0,0,0-4.941,1.206,8.7,8.7,0,0,0-3.409,3.352,9.628,9.628,0,0,0-1.226,4.865,9.624,9.624,0,0,0,1.226,4.864A8.7,8.7,0,0,0,183.8,33.12a10.048,10.048,0,0,0,4.941,1.207,9.33,9.33,0,0,0,7.163-3.18l3.217,3.064a12.235,12.235,0,0,1-4.616,3.332,15.44,15.44,0,0,1-6.033,1.15,15.1,15.1,0,0,1-7.335-1.782"
              transform="translate(-100.03 -6.384)" fill="#fff"/>
        <rect width="4.788" height="28.42" transform="translate(103.126 3.505)" fill="#fff"/>
        <path d="M283.941,38.4H267.892a5.561,5.561,0,0,0,2.2,3.581,7.219,7.219,0,0,0,4.424,1.321,7.454,7.454,0,0,0,5.554-2.222l2.566,2.949a8.647,8.647,0,0,1-3.486,2.49,13.817,13.817,0,0,1-10.687-.5,9.653,9.653,0,0,1-3.964-3.735,10.54,10.54,0,0,1-1.4-5.419,10.7,10.7,0,0,1,1.36-5.382,9.649,9.649,0,0,1,3.773-3.735,11.008,11.008,0,0,1,5.439-1.341,10.732,10.732,0,0,1,5.343,1.321,9.362,9.362,0,0,1,3.677,3.715,11.267,11.267,0,0,1,1.321,5.535q0,.5-.077,1.417m-14.153-6.8a5.72,5.72,0,0,0-1.934,3.62h11.606a5.649,5.649,0,0,0-1.877-3.6,5.709,5.709,0,0,0-3.907-1.379,5.777,5.777,0,0,0-3.888,1.36"
              transform="translate(-151.13 -15.173)" fill="#fff"/>
        <path d="M333.577,28.579q2.393,2.165,2.394,6.531V47.1h-4.52V44.609a5.57,5.57,0,0,1-2.509,2.049,9.808,9.808,0,0,1-3.926.709,9.621,9.621,0,0,1-4.022-.785,6.205,6.205,0,0,1-2.662-2.183,5.539,5.539,0,0,1-.938-3.16,5.414,5.414,0,0,1,2.05-4.424q2.049-1.666,6.454-1.666h5.286v-.306a4.192,4.192,0,0,0-1.284-3.294,5.552,5.552,0,0,0-3.811-1.15,40.717,40.717,0,0,0-6.246.979.209.209,0,0,1-.267-.2v-3.8a42.189,42.189,0,0,1,7.088-.959q4.519,0,6.914,2.164M329.21,43.057a4.483,4.483,0,0,0,1.973-2.355V38.327h-4.942q-4.137,0-4.136,2.719a2.441,2.441,0,0,0,1.034,2.069,4.741,4.741,0,0,0,2.873.766,6.178,6.178,0,0,0,3.2-.824"
              transform="translate(-182.315 -15.173)" fill="#fff"/>
        <path d="M388.375,28.674q2.335,2.261,2.336,6.7V47.1h-4.788V35.99a5.744,5.744,0,0,0-1.264-4.041,4.676,4.676,0,0,0-3.6-1.36,5.528,5.528,0,0,0-4.175,1.59,6.335,6.335,0,0,0-1.533,4.577V47.1h-4.788V26.644h4.558v2.643a7.492,7.492,0,0,1,2.988-2.145,10.757,10.757,0,0,1,4.06-.728,8.548,8.548,0,0,1,6.205,2.26"
              transform="translate(-212.856 -15.172)" fill="#fff"/>
        <path d="M2.627,51.654A6.524,6.524,0,0,1,0,50.085L.689,48.73a6.6,6.6,0,0,0,2.4,1.462,8.784,8.784,0,0,0,3.09.558,5.653,5.653,0,0,0,3.352-.82A2.528,2.528,0,0,0,10.65,47.8a2.129,2.129,0,0,0-.606-1.593A4.1,4.1,0,0,0,8.558,45.3a24.149,24.149,0,0,0-2.448-.7,25.78,25.78,0,0,1-2.995-.915A4.912,4.912,0,0,1,1.2,42.336a3.57,3.57,0,0,1-.8-2.448,4.146,4.146,0,0,1,.666-2.294,4.548,4.548,0,0,1,2.045-1.652,8.354,8.354,0,0,1,3.423-.619,10.1,10.1,0,0,1,2.793.392A8.064,8.064,0,0,1,11.7,36.8L11.1,38.2a8.178,8.178,0,0,0-2.234-1.034,8.344,8.344,0,0,0-2.33-.345,5.377,5.377,0,0,0-3.292.844A2.617,2.617,0,0,0,2.139,39.84a2.169,2.169,0,0,0,.606,1.6,3.976,3.976,0,0,0,1.521.927q.915.32,2.46.7a24.767,24.767,0,0,1,2.96.892A4.859,4.859,0,0,1,11.6,45.3a3.524,3.524,0,0,1,.784,2.413A4.1,4.1,0,0,1,11.708,50a4.559,4.559,0,0,1-2.081,1.64,8.689,8.689,0,0,1-3.446.606,10.685,10.685,0,0,1-3.554-.594"
              transform="translate(0 -20.29)" fill="#fff"/>
        <path d="M45.325,52.025H34.865a4.468,4.468,0,0,0,1.5,3.15,4.97,4.97,0,0,0,3.423,1.2,5.393,5.393,0,0,0,2.139-.416,4.669,4.669,0,0,0,1.687-1.224l.951,1.093a5.348,5.348,0,0,1-2.08,1.521,7.038,7.038,0,0,1-2.746.523,6.938,6.938,0,0,1-3.411-.82,5.9,5.9,0,0,1-2.318-2.27,6.466,6.466,0,0,1-.832-3.28,6.7,6.7,0,0,1,.8-3.28,5.769,5.769,0,0,1,2.187-2.258,6.106,6.106,0,0,1,3.126-.808,6.042,6.042,0,0,1,3.114.808,5.731,5.731,0,0,1,2.163,2.246,6.764,6.764,0,0,1,.784,3.292Zm-9.069-4.267a4.525,4.525,0,0,0-1.391,3.007h8.867a4.529,4.529,0,0,0-1.39-3.007,4.592,4.592,0,0,0-6.085,0"
              transform="translate(-19.058 -25.937)" fill="#fff"/>
        <path d="M68.923,57.064a5.849,5.849,0,0,1-2.294-2.271,6.909,6.909,0,0,1,0-6.572,5.875,5.875,0,0,1,2.294-2.258,6.74,6.74,0,0,1,3.317-.808,6.417,6.417,0,0,1,2.887.63,4.786,4.786,0,0,1,2.009,1.842l-1.26.856a3.938,3.938,0,0,0-1.568-1.39,4.653,4.653,0,0,0-2.068-.463,4.9,4.9,0,0,0-2.437.606,4.259,4.259,0,0,0-1.687,1.723,5.663,5.663,0,0,0,0,5.1A4.279,4.279,0,0,0,69.8,55.769a4.9,4.9,0,0,0,2.437.606,4.758,4.758,0,0,0,2.068-.452,3.854,3.854,0,0,0,1.568-1.378l1.26.855a4.774,4.774,0,0,1-2.02,1.842,6.441,6.441,0,0,1-2.876.629,6.735,6.735,0,0,1-3.317-.808"
              transform="translate(-37.795 -25.937)" fill="#fff"/>
        <path d="M103.391,53.431a3.2,3.2,0,0,1-1.177.654,4.748,4.748,0,0,1-1.461.225,3.312,3.312,0,0,1-3.661-3.637V38.954h1.688v2.734h3.8v1.426h-3.8v7.464a2.361,2.361,0,0,0,.559,1.7,2.116,2.116,0,0,0,1.6.582,3.1,3.1,0,0,0,1.01-.166,2.507,2.507,0,0,0,.844-.475Z"
              transform="translate(-55.77 -22.375)" fill="#fff"/>
        <path d="M117.052,57.052a5.98,5.98,0,0,1-2.282-2.27,6.883,6.883,0,0,1,0-6.561,5.9,5.9,0,0,1,2.282-2.259,6.969,6.969,0,0,1,6.514,0,5.817,5.817,0,0,1,2.27,2.259,6.971,6.971,0,0,1,0,6.561,5.9,5.9,0,0,1-2.27,2.27,6.88,6.88,0,0,1-6.514,0m5.646-1.284a4.231,4.231,0,0,0,1.652-1.724,5.742,5.742,0,0,0,0-5.087,4.23,4.23,0,0,0-1.652-1.723,5.012,5.012,0,0,0-4.778,0,4.3,4.3,0,0,0-1.664,1.723,5.637,5.637,0,0,0,0,5.087,4.306,4.306,0,0,0,1.664,1.724,5.012,5.012,0,0,0,4.778,0"
              transform="translate(-65.447 -25.937)" fill="#fff"/>
        <path d="M152.211,45.8a6.021,6.021,0,0,1,2.912-.642V46.8l-.4-.024a3.991,3.991,0,0,0-3.091,1.213,4.827,4.827,0,0,0-1.117,3.4v6.371h-1.688V45.25h1.617V47.7a4.09,4.09,0,0,1,1.771-1.9"
              transform="translate(-85.486 -25.937)" fill="#fff"/>
        <path d="M414.589,0c-.987,5.639-2.246,6.912-7.866,8,5.639.987,6.912,2.245,8,7.866.987-5.639,2.246-6.912,7.866-8-5.639-.987-6.912-2.245-8-7.866"
              transform="translate(-233.626 0)" fill="#fff"/>
    </g>
</svg>
