<svg xmlns="http://www.w3.org/2000/svg" viewBox="0 0 362.433 68.172"><g transform="translate(-83.91 -26.81)"><path d="M3056.286,1053.625c-12.3-6.681-3.236-29.939-23.741-24.3,9.543-22.107-23.146-48.477-53.039-24.333-7.522-20.424-30.167-10.549-31.487-5.258-7.035-4.374-25.607-4.413-25.207-2.165-11.025-7.921-35.546-12.379-45.972-3.509-22.8-10.7-55.275-6.635-52.617-1.721-15.591-7.873-35.51-6.574-51.708,15.926-4.607-1.927,15.791,9.967,22.715,13.164-33.4-12.15-56.77-22.982-67.489-13.164-6.255,6.048,8.7,33.731-23.438,45.366Z" transform="translate(-2610.96 -958.642)" fill="#b4d7ff"/><path d="M49.2,95.8l-.28.054h-.566C45.923,95.856,46.358,95.836,49.2,95.8Zm359.457-.14c.389.061.574.126.544.194Q408.924,95.761,408.657,95.662ZM69.208,76.637c-9.4-3.785-4.891-23.172,16.438-13.4-6.925-3.237-.359-7.752,4.248-5.8-10.021-16.181,32.964-12.861,48.554-4.887,4.234-9.163,38.54-44.059,85.162-10.768.52.49.832.786,1.146,1.085,1.936-3.844,6.646-6.033,13.68-1.6,1.32-5.359,15.624-13.306,27.051-5.251,23.864-10.067,70.238,2.215,74.886,16.537,16.548-22.119,46.656.349,39.091,12.463,19.187,4.352,12.931,24.6,29.193,30.644-10.7-1.691-176.075-1.07-279.523-.45-40.356.242-71.288.485-79.934.59C65.224,92.63,54.718,79.2,69.208,76.637Zm321-14.095a2.5,2.5,0,1,1,2.5,2.5A2.5,2.5,0,0,1,390.208,62.542ZM60.071,51.864a3,3,0,1,1,3,3A3,3,0,0,1,60.071,51.864Zm9.27-9.812a5.5,5.5,0,1,1,5.5,5.5A5.5,5.5,0,0,1,69.34,42.053ZM383.3,44.035a2,2,0,1,1,2,2A2,2,0,0,1,383.3,44.035ZM114.892,37.283a3,3,0,1,1,3,3A3,3,0,0,1,114.892,37.283ZM330.09,34.5a4.5,4.5,0,1,1,4.5,4.5A4.5,4.5,0,0,1,330.09,34.5Z" transform="translate(37.14 -0.875)" fill="#fff"/></g></svg>
