<svg xmlns="http://www.w3.org/2000/svg" width="764.363" height="133.53" viewBox="0 0 764.363 133.53"><g transform="translate(-1060.652 -947)"><path d="M2610.96,1029.41c19.957-2.445,74.047-49.145,95.414-14.41,8.046-18.1,43.026-8.845,44.518-4.971,19.3-7.7,18.383,2.536,30.673,4.971,11.739-10.786,20.657-9.393,24.02-10.02,2.308-5.859,19.124-16.758,41.189,0,17.79-13.891,32.8-19.523,58.757-16.793,13.772,1.448,28.007,6.273,29.82,12.724,13.01-10.715,29.295-.142,30.8,6.986,8.01-5.893,29.155-5.945,28.7-2.917,45.785-54.07,116.909-17.246,112.246-7.047,17.75-10.607,52.584,11.44,28.173,31.477,5.246-2.6,12.72,3.408,4.837,7.715,38.029-16.368,71.428-35.352,83.631-22.125,7.122,8.149-1.4,23.441,35.2,39.117,17.429,7.359,42.051-12.43,57.785,9.039,5.723,15.68,24.214,17.344,31.57,17.353,39.456.047-658.234,0-658.234,0S2625.261,1068.113,2610.96,1029.41Z" transform="translate(-1524.882)" fill="#b4d7ff"/><path d="M-715.528,133.51h-.2l1.8,0Zm-660.761-.85s-68.116-34.551-58.843-50.25c30.531,1.786,59.939-6.231,84.357-14.246,31.3-10.273,54.394-20.547,61.152-10.183,4.779-.394,34.934-24.715,56.3,10.02,8.046-18.1,31.188-8.845,32.68-4.972,19.3-7.7,18.383,2.535,30.672,4.972,11.74-10.787,20.658-9.393,24.021-10.02,2.308-5.86,19.124-16.758,41.189,0,17.789-13.891,33.86-25.882,59.815-23.153,13.773,1.448,26.949,12.632,28.761,19.084,13.01-10.715,29.295-.142,30.8,6.986,8.01-5.894,16.032-.9,15.575,2.131,71.284-79.65,130.033-22.295,125.369-12.1,17.751-10.606,52.584,11.44,28.174,31.477,5.245-2.6,12.721,3.407,4.837,7.715,38.03-16.368,57.832-2.68,62.24,2.363,18.893,21.616,12.256,40.875,33.462,41.02C-753.708,133.457-1376.289,132.66-1376.289,132.66Zm-25.193-63.752a6.5,6.5,0,0,1-2.993-8.691,6.5,6.5,0,0,1,8.691-2.993,6.5,6.5,0,0,1,2.993,8.692,6.5,6.5,0,0,1-5.847,3.652A6.474,6.474,0,0,1-1401.482,68.909Zm615.83-6.409a5.5,5.5,0,0,1,5.5-5.5,5.5,5.5,0,0,1,5.5,5.5,5.5,5.5,0,0,1-5.5,5.5A5.5,5.5,0,0,1-785.651,62.5Zm-599.278-4.808a3,3,0,0,1-1.381-4.011A3,3,0,0,1-1382.3,52.3a3,3,0,0,1,1.381,4.012,3,3,0,0,1-2.7,1.685A2.989,2.989,0,0,1-1384.929,57.692ZM-807.652,46.5a10.5,10.5,0,0,1,10.5-10.5,10.5,10.5,0,0,1,10.5,10.5,10.5,10.5,0,0,1-10.5,10.5A10.5,10.5,0,0,1-807.652,46.5Zm-426.277,9.192a3,3,0,0,1-1.381-4.011A3,3,0,0,1-1231.3,50.3a3,3,0,0,1,1.382,4.011,3,3,0,0,1-2.7,1.686A2.985,2.985,0,0,1-1233.929,55.692ZM-780.652,42.5a2.5,2.5,0,0,1,2.5-2.5,2.5,2.5,0,0,1,2.5,2.5,2.5,2.5,0,0,1-2.5,2.5A2.5,2.5,0,0,1-780.652,42.5Zm-222-8a7.5,7.5,0,0,1,7.5-7.5,7.5,7.5,0,0,1,7.5,7.5,7.5,7.5,0,0,1-7.5,7.5A7.5,7.5,0,0,1-1002.652,34.5Zm50-20.5a8,8,0,0,1,8-8,8,8,0,0,1,8,8,8,8,0,0,1-8,8A8,8,0,0,1-952.652,14Zm-9-10a4,4,0,0,1,4-4,4,4,0,0,1,4,4,4,4,0,0,1-4,4A4,4,0,0,1-961.652,4Z" transform="translate(2496.652 947)" fill="#fff"/></g></svg>